<?xml version="1.0" encoding="utf-8"?>
<!-- Generator: Adobe Illustrator 17.0.0, SVG Export Plug-In . SVG Version: 6.00 Build 0)  -->
<!DOCTYPE svg PUBLIC "-//W3C//DTD SVG 1.1//EN" "http://www.w3.org/Graphics/SVG/1.1/DTD/svg11.dtd">
<svg version="1.1" id="Layer_1" xmlns="http://www.w3.org/2000/svg" xmlns:xlink="http://www.w3.org/1999/xlink" x="0px" y="0px"
	 width="400px" height="86.667px" viewBox="0 0 400 86.667" enable-background="new 0 0 400 86.667" xml:space="preserve">
<g>
	<g>
		<path fill="#FFFFFF" d="M61.199,73.198c-0.002,0.908-0.455,1.404-1.354,1.495c-3.796,0.387-7.591,0.79-11.384,1.209
			c-0.389,0.043-0.726-0.053-1.012-0.283c-0.29-0.234-0.434-0.549-0.434-0.945c-0.111-8.352-0.222-16.709-0.332-25.072
			c-2.496,8.608-4.989,17.322-7.479,26.147c-0.13,0.35-0.354,0.695-0.676,1.036c-0.322,0.336-0.675,0.53-1.06,0.576
			c-2.57,0.306-5.139,0.618-7.708,0.938c-0.384,0.048-0.741-0.061-1.058-0.326c-0.321-0.268-0.579-0.561-0.771-0.879
			c-2.429-8.406-4.861-16.917-7.296-25.541c-0.169,8.765-0.337,17.538-0.505,26.319c-0.001,0.972-0.448,1.512-1.349,1.632
			c-3.817,0.505-7.633,1.027-11.447,1.564c-0.321,0.045-0.626-0.054-0.916-0.296c-0.286-0.246-0.43-0.582-0.43-1.007
			c0.865-23.864,1.734-47.61,2.607-71.24c0-0.107,0-0.213,0-0.32c0.063-0.423,0.26-0.743,0.582-0.955
			c0.063,0,0.126-0.035,0.193-0.104c0.13,0,0.224-0.035,0.291-0.108c4.091-0.002,8.182-0.005,12.273-0.007
			c0.641,0,1.124,0.45,1.446,1.344c2.885,13.279,5.765,26.353,8.64,39.236c0.35,2.823,0.701,5.64,1.051,8.452
			c0.261-2.864,0.522-5.724,0.782-8.581c3.398-13.281,6.802-26.329,10.21-39.165c0.194-0.865,0.679-1.299,1.45-1.299
			c4.092-0.002,8.185-0.004,12.277-0.006c0.063,0.067,0.157,0.099,0.287,0.099c0,0.063,0.031,0.095,0.098,0.095
			c0.255,0.194,0.447,0.487,0.576,0.876c0,0.066,0,0.132,0,0.198c0.033,0.032,0.065,0.063,0.098,0.095
			C59.633,30.068,60.416,51.673,61.199,73.198z"/>
		<path fill="#FFFFFF" d="M109.081,62.065c-0.001,0.308-0.033,0.581-0.097,0.83c-0.068,0.245-0.147,0.495-0.246,0.743
			c-0.095,0.251-0.308,0.539-0.632,0.859c-1.841,1.818-3.682,3.649-5.524,5.495c-0.521,0.526-1.069,0.872-1.647,1.034
			c-0.26,0.082-0.52,0.131-0.775,0.15c-8.348,0.605-16.691,1.287-25.03,2.044c-0.322,0.029-0.613,0.025-0.868-0.018
			c-0.581-0.071-1.127-0.339-1.64-0.801c-1.798-1.618-3.595-3.247-5.392-4.886c-0.517-0.467-0.834-0.985-0.962-1.55
			c-0.066-0.253-0.097-0.536-0.096-0.862c0.043-16.473,0.086-32.946,0.129-49.42c0.001-0.255,0.033-0.514,0.1-0.773
			c0.131-0.64,0.451-1.224,0.972-1.741c1.808-1.812,3.617-3.61,5.425-5.394c0.517-0.51,1.064-0.828,1.646-0.956
			c0.256-0.062,0.547-0.097,0.869-0.097c8.312,0,16.624,0,24.936,0c0.256,0,0.511,0.034,0.77,0.094
			c0.645,0.124,1.222,0.431,1.739,0.92c1.83,1.714,3.661,3.418,5.491,5.112c0.322,0.303,0.533,0.591,0.627,0.862
			c0.098,0.274,0.175,0.534,0.242,0.775c0.062,0.245,0.093,0.49,0.092,0.731C109.168,30.834,109.125,46.449,109.081,62.065z
			 M83.006,20.566c-0.26,0.005-0.453,0.104-0.579,0.294c-0.549,0.511-1.099,1.023-1.648,1.537c-0.193,0.192-0.292,0.383-0.293,0.571
			c0,0.063,0,0.126-0.001,0.188c-0.031,11.214-0.063,22.427-0.094,33.641c-0.001,0.188,0.097,0.401,0.289,0.638
			c0.45,0.411,0.899,0.82,1.349,1.23c3.736-0.253,7.473-0.493,11.211-0.722c0.452-0.461,0.905-0.922,1.357-1.381
			c0.193-0.193,0.288-0.417,0.289-0.662c0.032-11.013,0.063-22.025,0.095-33.038c0-0.062,0-0.123,0.001-0.185
			c0-0.185-0.093-0.368-0.285-0.55c-0.514-0.484-1.028-0.969-1.541-1.455c-0.196-0.182-0.42-0.273-0.68-0.269
			C89.318,20.455,86.162,20.509,83.006,20.566z"/>
		<path fill="#FFFFFF" d="M156.453,37.441c-0.001,0.297-0.033,0.559-0.096,0.797c-0.067,0.234-0.146,0.472-0.245,0.706
			c-0.095,0.238-0.308,0.507-0.631,0.802c-1.84,1.705-3.68,3.417-5.521,5.137c-0.097,0.061-0.194,0.122-0.292,0.183
			c3.276,7.318,6.555,14.599,9.837,21.858c0.126,0.29,0.011,0.572-0.34,0.843c-0.359,0.275-0.698,0.418-1.017,0.427
			c-4.327,0.131-8.654,0.283-12.98,0.455c-0.386,0.015-0.74-0.104-1.063-0.358c-0.322-0.25-0.546-0.523-0.676-0.813
			c-3.147-7.057-6.292-14.148-9.435-21.285c-1.484,0.045-2.968,0.092-4.452,0.14c-0.018,7.259-0.035,14.517-0.053,21.776
			c-0.001,0.299-0.131,0.59-0.388,0.869c-0.261,0.283-0.584,0.435-0.97,0.455c-3.84,0.2-7.679,0.416-11.517,0.649
			c-0.323,0.02-0.626-0.098-0.916-0.354c-0.291-0.252-0.435-0.531-0.435-0.834c0.055-20.3,0.11-40.6,0.164-60.9
			c0.001-0.362,0.147-0.665,0.439-0.905c0.292-0.244,0.595-0.365,0.917-0.365c10.245,0,20.491,0,30.736,0
			c0.256,0,0.515,0.032,0.771,0.09c0.259,0.058,0.531,0.133,0.821,0.219c0.291,0.09,0.593,0.28,0.919,0.575
			c1.832,1.678,3.664,3.35,5.497,5.017c0.322,0.293,0.534,0.586,0.628,0.879c0.098,0.293,0.176,0.558,0.243,0.791
			c0.062,0.293,0.094,0.558,0.093,0.791C156.478,22.538,156.465,29.99,156.453,37.441z M129.573,33.25
			c3.385-0.073,6.771-0.142,10.157-0.204c0.256-0.005,0.48-0.099,0.677-0.28c0.517-0.483,1.033-0.966,1.55-1.447
			c0.193-0.18,0.292-0.33,0.292-0.449c0-0.089,0-0.178,0.001-0.267c0.006-2.781,0.012-5.562,0.018-8.344c0-0.059,0-0.118,0-0.177
			c0-0.177-0.098-0.353-0.29-0.528c-0.514-0.469-1.029-0.939-1.543-1.409c-0.196-0.175-0.389-0.26-0.582-0.259
			c-0.064,0.001-0.129,0.001-0.193,0.002c-3.352,0.031-6.703,0.065-10.055,0.101C129.595,24.409,129.584,28.83,129.573,33.25z"/>
		<path fill="#FFFFFF" d="M205.559,37.102c0,0.294-0.031,0.552-0.094,0.786c-0.067,0.23-0.146,0.464-0.244,0.694
			c-0.094,0.234-0.307,0.495-0.63,0.782c-1.837,1.651-3.675,3.303-5.513,4.958c-0.097,0.058-0.194,0.116-0.291,0.174
			c3.291,7.28,6.585,14.567,9.882,21.872c0.126,0.291,0.012,0.567-0.339,0.823c-0.359,0.26-0.698,0.389-1.017,0.388
			c-4.329-0.023-8.657-0.025-12.986-0.007c-0.386,0.002-0.741-0.128-1.064-0.388c-0.323-0.257-0.548-0.532-0.678-0.822
			c-3.162-7.035-6.321-14.065-9.478-21.102c-1.485,0.012-2.97,0.025-4.454,0.039c-0.006,7.069-0.012,14.137-0.018,21.206
			c0,0.291-0.13,0.57-0.387,0.833c-0.26,0.267-0.584,0.403-0.97,0.41c-3.843,0.063-7.686,0.143-11.529,0.238
			c-0.323,0.008-0.627-0.116-0.918-0.373c-0.291-0.253-0.437-0.528-0.436-0.82c0.027-19.614,0.055-39.227,0.082-58.841
			c0.001-0.35,0.146-0.642,0.438-0.874c0.291-0.236,0.594-0.353,0.917-0.353c10.245,0,20.491,0,30.736,0
			c0.256,0,0.515,0.032,0.771,0.089c0.26,0.057,0.531,0.131,0.822,0.216c0.291,0.089,0.594,0.276,0.92,0.567
			c1.835,1.654,3.671,3.307,5.507,4.962c0.323,0.291,0.535,0.581,0.63,0.872c0.098,0.29,0.177,0.553,0.244,0.783
			c0.063,0.29,0.095,0.553,0.095,0.783C205.556,22.363,205.558,29.733,205.559,37.102z M178.664,32.556
			c3.387-0.022,6.773-0.039,10.16-0.051c0.256-0.001,0.48-0.09,0.677-0.264c0.516-0.466,1.032-0.932,1.548-1.397
			c0.193-0.174,0.291-0.32,0.291-0.437c0-0.087,0-0.175,0-0.262c0.001-2.728,0.002-5.456,0.003-8.184c0-0.058,0-0.116,0-0.174
			c0-0.174-0.098-0.347-0.291-0.52c-0.515-0.465-1.031-0.929-1.546-1.394c-0.197-0.173-0.389-0.258-0.582-0.258
			c-0.064,0-0.128,0-0.193,0c-3.352,0.006-6.704,0.014-10.057,0.025C178.671,23.947,178.667,28.252,178.664,32.556z"/>
		<path fill="#FFFFFF" d="M228.222,30.858c5.707,0.046,11.414,0.106,17.121,0.18c0.901,0.012,1.355,0.43,1.356,1.252
			c0.006,3.498,0.012,6.995,0.019,10.493c0.001,0.825-0.451,1.225-1.352,1.207c-5.709-0.114-11.419-0.206-17.129-0.276
			c0.004,3.76,0.008,7.519,0.013,11.279c7.455,0.12,14.91,0.288,22.363,0.504c0.323,0.009,0.626,0.137,0.918,0.383
			c0.292,0.242,0.438,0.542,0.439,0.895c0.007,3.508,0.014,7.016,0.02,10.525c0.001,0.353-0.144,0.642-0.436,0.869
			c-0.291,0.223-0.594,0.33-0.917,0.319c-11.75-0.431-23.504-0.711-35.259-0.841c-0.907-0.01-1.356-0.419-1.357-1.234
			c-0.011-19.489-0.022-38.978-0.033-58.467c-0.001-0.812,0.448-1.22,1.352-1.22c11.727,0,23.453,0,35.18,0
			c0.323,0,0.625,0.119,0.917,0.356c0.291,0.234,0.438,0.529,0.438,0.882c0.007,3.508,0.014,7.016,0.02,10.525
			c0.001,0.353-0.144,0.647-0.435,0.882c-0.291,0.232-0.593,0.348-0.916,0.345c-7.445-0.057-14.89-0.102-22.335-0.134
			C228.213,23.338,228.217,27.098,228.222,30.858z"/>
		<path fill="#FFFFFF" d="M287.624,8.09c3.249,10.201,6.467,20.467,9.655,30.814c3.184,10.347,6.404,20.837,9.659,31.495
			c0.127,0.32,0.014,0.606-0.336,0.855c-0.357,0.252-0.727,0.364-1.112,0.334c-3.674-0.281-7.349-0.548-11.024-0.8
			c-0.386-0.026-0.74-0.188-1.064-0.486c-0.323-0.294-0.549-0.599-0.679-0.913c-0.781-2.521-1.562-5.036-2.343-7.545
			c-6.48-0.367-12.963-0.695-19.447-0.983c-0.767,2.386-1.534,4.768-2.302,7.147c-0.129,0.292-0.357,0.565-0.679,0.815
			c-0.322,0.253-0.676,0.371-1.063,0.352c-3.679-0.178-7.358-0.342-11.038-0.49c-0.386-0.016-0.757-0.164-1.112-0.445
			c-0.355-0.277-0.47-0.562-0.341-0.853c6.351-19.532,12.688-39.262,19.016-59.317c0-0.03,0-0.061,0-0.091
			c0.383-0.837,0.835-1.257,1.35-1.257c1.417,0,2.834,0,4.251,0c0.999,0,1.998,0,2.996,0c1.418,0,2.837,0,4.255,0
			c0.578,0,1.027,0.425,1.356,1.274C287.623,8.028,287.623,8.059,287.624,8.09z M286.478,49.362c-1.95-6.295-3.9-12.551-5.85-18.772
			c-1.951,6.135-3.902,12.238-5.855,18.313C278.675,49.044,282.577,49.198,286.478,49.362z"/>
		<path fill="#FFFFFF" d="M351.991,61.833c0.291,0.324,0.437,0.651,0.438,0.978c0.008,3.931,0.017,7.863,0.025,11.794
			c0.001,0.395-0.144,0.71-0.433,0.944c-0.29,0.23-0.627,0.325-1.012,0.283c-12.859-1.414-25.733-2.646-38.619-3.698
			c-0.389-0.032-0.728-0.185-1.016-0.455c-0.292-0.274-0.438-0.598-0.439-0.97c-0.06-20.893-0.119-41.786-0.179-62.678
			c0.033,0,0.066,0,0.098,0c0.124-0.684,0.575-1.026,1.35-1.026c3.801,0.001,7.603,0.003,11.404,0.004
			c0.771,0,1.224,0.349,1.356,1.046c0.047,17.064,0.094,34.127,0.141,51.191c8.629,0.62,17.253,1.303,25.873,2.051
			C351.362,61.331,351.7,61.509,351.991,61.833z"/>
		<path fill="#FFFFFF" d="M370.481,34.914c5.695,0.279,11.388,0.572,17.08,0.879c0.903,0.048,1.351,0.567,1.351,1.551
			c0.001,4.189,0.003,8.378,0.004,12.567c0,0.989-0.446,1.441-1.349,1.366c-5.687-0.471-11.375-0.92-17.066-1.348
			c0.006,4.392,0.012,8.783,0.018,13.175c7.424,0.729,14.843,1.505,22.257,2.329c0.321,0.036,0.627,0.213,0.917,0.531
			c0.282,0.314,0.431,0.686,0.431,1.112c0,4.23,0,8.461,0,12.691c0,0.425-0.149,0.76-0.431,1.007
			c-0.29,0.241-0.595,0.341-0.916,0.296c-11.669-1.644-23.354-3.139-35.052-4.483c-0.902-0.104-1.351-0.617-1.352-1.55
			c-0.044-22.306-0.088-44.612-0.132-66.918c-0.002-0.929,0.446-1.396,1.35-1.396c11.727,0,23.453,0,35.18,0
			c0.323,0,0.629,0.143,0.92,0.429c0.283,0.282,0.433,0.638,0.433,1.063c0,4.23,0,8.461,0,12.691c0,0.425-0.149,0.777-0.432,1.055
			c-0.291,0.273-0.597,0.407-0.919,0.398c-7.435-0.219-14.872-0.426-22.309-0.62C370.469,26.131,370.475,30.522,370.481,34.914z"/>
	</g>
</g>
</svg>
