<?xml version="1.0" encoding="utf-8"?>
<!-- Generator: Adobe Illustrator 17.1.0, SVG Export Plug-In . SVG Version: 6.00 Build 0)  -->
<!DOCTYPE svg PUBLIC "-//W3C//DTD SVG 1.1//EN" "http://www.w3.org/Graphics/SVG/1.1/DTD/svg11.dtd">
<svg version="1.1" id="Layer_1" xmlns="http://www.w3.org/2000/svg" xmlns:xlink="http://www.w3.org/1999/xlink" x="0px" y="0px"
	 viewBox="0 0 400 86.7" enable-background="new 0 0 400 86.7" xml:space="preserve">
<g>
	<g>
		<path fill="#111111" d="M61.2,73.2c0,0.9-0.5,1.4-1.4,1.5c-3.8,0.4-7.6,0.8-11.4,1.2c-0.4,0-0.7-0.1-1-0.3
			c-0.3-0.2-0.4-0.5-0.4-0.9c-0.1-8.4-0.2-16.7-0.3-25.1c-2.5,8.6-5,17.3-7.5,26.1c-0.1,0.3-0.4,0.7-0.7,1c-0.3,0.3-0.7,0.5-1.1,0.6
			c-2.6,0.3-5.1,0.6-7.7,0.9c-0.4,0-0.7-0.1-1.1-0.3c-0.3-0.3-0.6-0.6-0.8-0.9c-2.4-8.4-4.9-16.9-7.3-25.5
			c-0.2,8.8-0.3,17.5-0.5,26.3c0,1-0.4,1.5-1.3,1.6c-3.8,0.5-7.6,1-11.4,1.6c-0.3,0-0.6-0.1-0.9-0.3c-0.3-0.2-0.4-0.6-0.4-1
			C6.9,55.9,7.7,32.2,8.6,8.5c0-0.1,0-0.2,0-0.3c0.1-0.4,0.3-0.7,0.6-1c0.1,0,0.1,0,0.2-0.1c0.1,0,0.2,0,0.3-0.1c4.1,0,8.2,0,12.3,0
			c0.6,0,1.1,0.4,1.4,1.3c2.9,13.3,5.8,26.4,8.6,39.2c0.3,2.8,0.7,5.6,1.1,8.5c0.3-2.9,0.5-5.7,0.8-8.6c3.4-13.3,6.8-26.3,10.2-39.2
			C44.3,7.5,44.7,7,45.5,7c4.1,0,8.2,0,12.3,0c0.1,0.1,0.2,0.1,0.3,0.1c0,0.1,0,0.1,0.1,0.1c0.3,0.2,0.4,0.5,0.6,0.9
			c0,0.1,0,0.1,0,0.2c0,0,0.1,0.1,0.1,0.1C59.6,30.1,60.4,51.7,61.2,73.2z"/>
		<path fill="#111111" d="M109.1,62.1c0,0.3,0,0.6-0.1,0.8c-0.1,0.2-0.1,0.5-0.2,0.7c-0.1,0.3-0.3,0.5-0.6,0.9
			c-1.8,1.8-3.7,3.6-5.5,5.5c-0.5,0.5-1.1,0.9-1.6,1c-0.3,0.1-0.5,0.1-0.8,0.2c-8.3,0.6-16.7,1.3-25,2c-0.3,0-0.6,0-0.9,0
			c-0.6-0.1-1.1-0.3-1.6-0.8c-1.8-1.6-3.6-3.2-5.4-4.9c-0.5-0.5-0.8-1-1-1.6c-0.1-0.3-0.1-0.5-0.1-0.9c0-16.5,0.1-32.9,0.1-49.4
			c0-0.3,0-0.5,0.1-0.8c0.1-0.6,0.5-1.2,1-1.7c1.8-1.8,3.6-3.6,5.4-5.4c0.5-0.5,1.1-0.8,1.6-1c0.3-0.1,0.5-0.1,0.9-0.1
			c8.3,0,16.6,0,24.9,0c0.3,0,0.5,0,0.8,0.1c0.6,0.1,1.2,0.4,1.7,0.9c1.8,1.7,3.7,3.4,5.5,5.1c0.3,0.3,0.5,0.6,0.6,0.9
			c0.1,0.3,0.2,0.5,0.2,0.8c0.1,0.2,0.1,0.5,0.1,0.7C109.2,30.8,109.1,46.4,109.1,62.1z M83,20.6c-0.3,0-0.5,0.1-0.6,0.3
			c-0.5,0.5-1.1,1-1.6,1.5c-0.2,0.2-0.3,0.4-0.3,0.6c0,0.1,0,0.1,0,0.2c0,11.2-0.1,22.4-0.1,33.6c0,0.2,0.1,0.4,0.3,0.6
			c0.4,0.4,0.9,0.8,1.3,1.2c3.7-0.3,7.5-0.5,11.2-0.7c0.5-0.5,0.9-0.9,1.4-1.4c0.2-0.2,0.3-0.4,0.3-0.7c0-11,0.1-22,0.1-33
			c0-0.1,0-0.1,0-0.2c0-0.2-0.1-0.4-0.3-0.5c-0.5-0.5-1-1-1.5-1.5c-0.2-0.2-0.4-0.3-0.7-0.3C89.3,20.5,86.2,20.5,83,20.6z"/>
		<path fill="#111111" d="M156.5,37.4c0,0.3,0,0.6-0.1,0.8c-0.1,0.2-0.1,0.5-0.2,0.7c-0.1,0.2-0.3,0.5-0.6,0.8
			c-1.8,1.7-3.7,3.4-5.5,5.1c-0.1,0.1-0.2,0.1-0.3,0.2c3.3,7.3,6.6,14.6,9.8,21.9c0.1,0.3,0,0.6-0.3,0.8c-0.4,0.3-0.7,0.4-1,0.4
			c-4.3,0.1-8.7,0.3-13,0.5c-0.4,0-0.7-0.1-1.1-0.4c-0.3-0.2-0.5-0.5-0.7-0.8c-3.1-7.1-6.3-14.1-9.4-21.3c-1.5,0-3,0.1-4.5,0.1
			c0,7.3,0,14.5-0.1,21.8c0,0.3-0.1,0.6-0.4,0.9c-0.3,0.3-0.6,0.4-1,0.5c-3.8,0.2-7.7,0.4-11.5,0.6c-0.3,0-0.6-0.1-0.9-0.4
			c-0.3-0.3-0.4-0.5-0.4-0.8c0.1-20.3,0.1-40.6,0.2-60.9c0-0.4,0.1-0.7,0.4-0.9c0.3-0.2,0.6-0.4,0.9-0.4c10.2,0,20.5,0,30.7,0
			c0.3,0,0.5,0,0.8,0.1c0.3,0.1,0.5,0.1,0.8,0.2c0.3,0.1,0.6,0.3,0.9,0.6c1.8,1.7,3.7,3.4,5.5,5c0.3,0.3,0.5,0.6,0.6,0.9
			c0.1,0.3,0.2,0.6,0.2,0.8c0.1,0.3,0.1,0.6,0.1,0.8C156.5,22.5,156.5,30,156.5,37.4z M129.6,33.2c3.4-0.1,6.8-0.1,10.2-0.2
			c0.3,0,0.5-0.1,0.7-0.3c0.5-0.5,1-1,1.6-1.4c0.2-0.2,0.3-0.3,0.3-0.4c0-0.1,0-0.2,0-0.3c0-2.8,0-5.6,0-8.3c0-0.1,0-0.1,0-0.2
			c0-0.2-0.1-0.4-0.3-0.5c-0.5-0.5-1-0.9-1.5-1.4c-0.2-0.2-0.4-0.3-0.6-0.3c-0.1,0-0.1,0-0.2,0c-3.4,0-6.7,0.1-10.1,0.1
			C129.6,24.4,129.6,28.8,129.6,33.2z"/>
		<path fill="#111111" d="M205.6,37.1c0,0.3,0,0.6-0.1,0.8c-0.1,0.2-0.1,0.5-0.2,0.7c-0.1,0.2-0.3,0.5-0.6,0.8
			c-1.8,1.7-3.7,3.3-5.5,5c-0.1,0.1-0.2,0.1-0.3,0.2c3.3,7.3,6.6,14.6,9.9,21.9c0.1,0.3,0,0.6-0.3,0.8c-0.4,0.3-0.7,0.4-1,0.4
			c-4.3,0-8.7,0-13,0c-0.4,0-0.7-0.1-1.1-0.4c-0.3-0.3-0.5-0.5-0.7-0.8c-3.2-7-6.3-14.1-9.5-21.1c-1.5,0-3,0-4.5,0
			c0,7.1,0,14.1,0,21.2c0,0.3-0.1,0.6-0.4,0.8c-0.3,0.3-0.6,0.4-1,0.4c-3.8,0.1-7.7,0.1-11.5,0.2c-0.3,0-0.6-0.1-0.9-0.4
			c-0.3-0.3-0.4-0.5-0.4-0.8c0-19.6,0.1-39.2,0.1-58.8c0-0.3,0.1-0.6,0.4-0.9c0.3-0.2,0.6-0.4,0.9-0.4c10.2,0,20.5,0,30.7,0
			c0.3,0,0.5,0,0.8,0.1c0.3,0.1,0.5,0.1,0.8,0.2c0.3,0.1,0.6,0.3,0.9,0.6c1.8,1.7,3.7,3.3,5.5,5c0.3,0.3,0.5,0.6,0.6,0.9
			c0.1,0.3,0.2,0.6,0.2,0.8c0.1,0.3,0.1,0.6,0.1,0.8C205.6,22.4,205.6,29.7,205.6,37.1z M178.7,32.6c3.4,0,6.8,0,10.2-0.1
			c0.3,0,0.5-0.1,0.7-0.3c0.5-0.5,1-0.9,1.5-1.4c0.2-0.2,0.3-0.3,0.3-0.4c0-0.1,0-0.2,0-0.3c0-2.7,0-5.5,0-8.2c0-0.1,0-0.1,0-0.2
			c0-0.2-0.1-0.3-0.3-0.5c-0.5-0.5-1-0.9-1.5-1.4c-0.2-0.2-0.4-0.3-0.6-0.3c-0.1,0-0.1,0-0.2,0c-3.4,0-6.7,0-10.1,0
			C178.7,23.9,178.7,28.3,178.7,32.6z"/>
		<path fill="#111111" d="M228.2,30.9c5.7,0,11.4,0.1,17.1,0.2c0.9,0,1.4,0.4,1.4,1.3c0,3.5,0,7,0,10.5c0,0.8-0.5,1.2-1.4,1.2
			c-5.7-0.1-11.4-0.2-17.1-0.3c0,3.8,0,7.5,0,11.3c7.5,0.1,14.9,0.3,22.4,0.5c0.3,0,0.6,0.1,0.9,0.4c0.3,0.2,0.4,0.5,0.4,0.9
			c0,3.5,0,7,0,10.5c0,0.4-0.1,0.6-0.4,0.9c-0.3,0.2-0.6,0.3-0.9,0.3c-11.8-0.4-23.5-0.7-35.3-0.8c-0.9,0-1.4-0.4-1.4-1.2
			c0-19.5,0-39,0-58.5c0-0.8,0.4-1.2,1.4-1.2c11.7,0,23.5,0,35.2,0c0.3,0,0.6,0.1,0.9,0.4c0.3,0.2,0.4,0.5,0.4,0.9c0,3.5,0,7,0,10.5
			c0,0.4-0.1,0.6-0.4,0.9c-0.3,0.2-0.6,0.3-0.9,0.3c-7.4-0.1-14.9-0.1-22.3-0.1C228.2,23.3,228.2,27.1,228.2,30.9z"/>
		<path fill="#111111" d="M287.6,8.1c3.2,10.2,6.5,20.5,9.7,30.8c3.2,10.3,6.4,20.8,9.7,31.5c0.1,0.3,0,0.6-0.3,0.9
			c-0.4,0.3-0.7,0.4-1.1,0.3c-3.7-0.3-7.3-0.5-11-0.8c-0.4,0-0.7-0.2-1.1-0.5c-0.3-0.3-0.5-0.6-0.7-0.9c-0.8-2.5-1.6-5-2.3-7.5
			c-6.5-0.4-13-0.7-19.4-1c-0.8,2.4-1.5,4.8-2.3,7.1c-0.1,0.3-0.4,0.6-0.7,0.8c-0.3,0.3-0.7,0.4-1.1,0.4c-3.7-0.2-7.4-0.3-11-0.5
			c-0.4,0-0.8-0.2-1.1-0.4c-0.4-0.3-0.5-0.6-0.3-0.9c6.4-19.5,12.7-39.3,19-59.3c0,0,0-0.1,0-0.1c0.4-0.8,0.8-1.3,1.4-1.3
			c1.4,0,2.8,0,4.3,0c1,0,2,0,3,0c1.4,0,2.8,0,4.3,0C286.8,6.7,287.3,7.1,287.6,8.1C287.6,8,287.6,8.1,287.6,8.1z M286.5,49.4
			c-2-6.3-3.9-12.6-5.9-18.8c-2,6.1-3.9,12.2-5.9,18.3C278.7,49,282.6,49.2,286.5,49.4z"/>
		<path fill="#111111" d="M352,61.8c0.3,0.3,0.4,0.7,0.4,1c0,3.9,0,7.9,0,11.8c0,0.4-0.1,0.7-0.4,0.9c-0.3,0.2-0.6,0.3-1,0.3
			c-12.9-1.4-25.7-2.6-38.6-3.7c-0.4,0-0.7-0.2-1-0.5c-0.3-0.3-0.4-0.6-0.4-1c-0.1-20.9-0.1-41.8-0.2-62.7c0,0,0.1,0,0.1,0
			c0.1-0.7,0.6-1,1.4-1c3.8,0,7.6,0,11.4,0c0.8,0,1.2,0.3,1.4,1c0,17.1,0.1,34.1,0.1,51.2c8.6,0.6,17.3,1.3,25.9,2.1
			C351.4,61.3,351.7,61.5,352,61.8z"/>
		<path fill="#111111" d="M370.5,34.9c5.7,0.3,11.4,0.6,17.1,0.9c0.9,0,1.4,0.6,1.4,1.6c0,4.2,0,8.4,0,12.6c0,1-0.4,1.4-1.3,1.4
			c-5.7-0.5-11.4-0.9-17.1-1.3c0,4.4,0,8.8,0,13.2c7.4,0.7,14.8,1.5,22.3,2.3c0.3,0,0.6,0.2,0.9,0.5c0.3,0.3,0.4,0.7,0.4,1.1
			c0,4.2,0,8.5,0,12.7c0,0.4-0.1,0.8-0.4,1c-0.3,0.2-0.6,0.3-0.9,0.3c-11.7-1.6-23.4-3.1-35.1-4.5c-0.9-0.1-1.4-0.6-1.4-1.6
			c0-22.3-0.1-44.6-0.1-66.9c0-0.9,0.4-1.4,1.4-1.4c11.7,0,23.5,0,35.2,0c0.3,0,0.6,0.1,0.9,0.4c0.3,0.3,0.4,0.6,0.4,1.1
			c0,4.2,0,8.5,0,12.7c0,0.4-0.1,0.8-0.4,1.1c-0.3,0.3-0.6,0.4-0.9,0.4c-7.4-0.2-14.9-0.4-22.3-0.6
			C370.5,26.1,370.5,30.5,370.5,34.9z"/>
	</g>
</g>
</svg>
